# xmcd
#
# Track frame offsets: 
#        150
#        19212
#        32520
#        48097
#        61496
#        76692
#        99011
#        108922
#        128878
#        142512
#        159445
#        176375
#        189923
#        209580
#        222182
#        230962
#
# Disc length: 3308 seconds
#
# Revision: 0
# Processed by: cddbd v1.5.2PL0 Copyright (c) Steve Scherf et al.
# Submitted via: ExactAudioCopy v1.0b3
#
DISCID=c50cea10
DTITLE=Jeff Liberman - Love Is Worth the Blues
DYEAR=2002
DGENRE=Blues
TTITLE0=To Be in Love
TTITLE1=In My Heart
TTITLE2=Vehicle
TTITLE3=Tell Me You Love Me
TTITLE4=Dreamin'
TTITLE5=Way Down Deep
TTITLE6=Stormy Weather
TTITLE7=I Love You
TTITLE8=Sunshine of Your Love
TTITLE9=One More Time
TTITLE10=Your Love
TTITLE11=Love Is Worth the Blues
TTITLE12=After Midnight
TTITLE13=Someone in My Dreams
TTITLE14=The Way I Love You
TTITLE15=Nothin' But the Blues
EXTD=
EXTT0=
EXTT1=
EXTT2=
EXTT3=
EXTT4=
EXTT5=
EXTT6=
EXTT7=
EXTT8=
EXTT9=
EXTT10=
EXTT11=
EXTT12=
EXTT13=
EXTT14=
EXTT15=
PLAYORDER=
